<svg data-v-0dd9719b="" version="1.0" xmlns="http://www.w3.org/2000/svg" xmlns:xlink="http://www.w3.org/1999/xlink" width="100%" height="100%" viewBox="0 0 340.000000 250.000000" preserveAspectRatio="xMidYMid meet" color-interpolation-filters="sRGB" style="margin: auto;"> <rect data-v-0dd9719b="" x="0" y="0" width="100%" height="100%" fill="#fff" fill-opacity="1" class="background"></rect> <rect data-v-0dd9719b="" x="0" y="0" width="100%" height="100%" fill="url(#watermark)" fill-opacity="1" class="watermarklayer"></rect> <g data-v-0dd9719b="" fill="#f16736" class="icon-text-wrapper icon-svg-group iconsvg" transform="translate(74.77999877929688,95)"><g class="iconsvg-imagesvg" transform="translate(0,0)"><g><rect fill="#f16736" fill-opacity="0" stroke-width="2" x="0" y="0" width="60" height="60" class="image-rect"></rect> <svg x="0" y="0" width="60" height="60" filtersec="colorsb6830191046" class="image-svg-svg primary" style="overflow: visible;"><svg xmlns="http://www.w3.org/2000/svg" viewBox="0 0 888.3207397460938 888.3200073242188"><g><g fill-rule="evenodd"><path d="M839.47 238.48H247.7L87.81 710Q0 595.18 0 444.5q0-183.81 130.52-314.33Q259.65 0 444.85 0q183.81 0 313.3 130.17 50.91 49.89 81.32 108.31z" fill="#f16736"></path><path d="M883.88 377.88a489.45 489.45 0 0 1 4.44 66.62q0 183.14-130.17 313.3-129.48 130.52-313.3 130.52-132.23 0-235.75-66.62L258 682q-38.94-19.14-97-51.59h423.24l44.42-139.75H321.85L342 427.08q-38.61-18.45-95-49.2z" fill="#42575f"></path></g></g></svg></svg> <!----></g></g> <g transform="translate(67,6.145000457763672)"><g data-gra="path-name" fill-rule="" class="tp-name iconsvg-namesvg"><g transform="scale(1)"><g><path d="M4.94-47.71L0 0 6.76 0 9.04-21.84 32.05-21.84 32.76-28.6 9.75-28.6 11.12-41.02 35.81-41.02 38.09-47.71 4.94-47.71ZM55.58-41.02L51.22 0 58.11 0 62.4-41.02 78.65-41.02 79.24-47.71 40.11-47.71 39.39-41.02 55.58-41.02ZM115.31-47.71L123.44-47.71 106.21-24.96 119.8 0 111.74 0 101.53-18.72 87.36 0 79.24 0 98.09-24.96 85.67-47.71 93.8-47.71 102.83-31.2 115.31-47.71Z" transform="translate(0, 47.709999084472656)"></path></g> <!----> <!----> <!----> <!----> <!----> <!----> <!----></g></g> <!----></g></g><defs v-gra="od"></defs></svg>